<?xml version="1.0" standalone="no"?><!DOCTYPE svg PUBLIC "-//W3C//DTD SVG 1.1//EN" "http://www.w3.org/Graphics/SVG/1.1/DTD/svg11.dtd"><svg t="1503545632783" class="icon" style="" viewBox="0 0 1024 1024" version="1.1" xmlns="http://www.w3.org/2000/svg" p-id="14924" xmlns:xlink="http://www.w3.org/1999/xlink" width="200" height="200"><defs><style type="text/css"></style></defs><path d="M47.1147 944.413946c1.54893-2.841563 3.031001-5.705413 4.646791-8.513546 80.087507-140.228355 160.175013-280.456709 240.318237-420.651634 1.54893-2.718986 2.217534-5.382255 2.217534-8.480116-0.044574-161.244778-0.044574-322.489557-0.044574-483.745478 0-2.373541-0.022287-4.747082-0.022287-7.120623 0.011143-9.806179 9.126432-15.990757 16.091048-15.90161 20.481541 0.256298 40.963083 0.089147 61.455767 0.089147 2.496118 0 5.00338 0.178294 7.477211-0.03343 7.31006-0.62403 16.55907 5.114814 17.004805 16.224768 0.044574 1.125482 0.011143 2.23982 0.011143 3.365302 0.011143 30.856033 0.011143 61.700922 0.022287 92.556954 0.03343 54.480008 38.411247 102.909159 91.476046 114.776864 64.041033 14.308106 123.412987-25.328914 139.470604-84.790015 3.187008-11.800845 4.089622-23.80227 4.056192-35.970846-0.089147-28.727646-0.03343-57.455292-0.011143-86.182938 0-1.994666 0.03343-4.000475 0.289728-5.972854 1.025191-8.067811 7.766939-13.962661 15.946184-13.973805 22.721362-0.011143 45.453867-0.011143 68.186372 0 9.338156 0 16.258198 6.864325 16.436493 16.247055 0.044574 2.128387-0.022287 4.24563-0.022287 6.374016 0 161.122201 0.011143 322.255546-0.055717 483.366603 0 3.632743 0.780037 6.730604 2.585265 9.884182 80.03179 139.994343 159.963289 279.99983 239.972792 419.971887 1.560074 2.718986 2.373541 5.415685 2.184103 8.524689-0.133721 2.362398-0.200581 4.769369 0.011143 7.120623 0.423449 4.903089-1.604647 8.65841-4.925376 12.023712-11.187958 11.243675-22.3202 22.531924-33.474728 33.820173-6.931185 7.009189-14.018378 13.895801-20.737839 21.116714-6.58574 7.064906-17.840559 7.009189-24.604594-0.044574-13.505782-14.040665-27.345866-27.769315-41.029943-41.642829-0.612886-0.612886-1.036335-1.41521-1.704938-2.328967-1.170055 0.947188-1.972379 1.48207-2.629839 2.13953-13.62836 13.739793-27.468444 27.290149-40.762502 41.364244-7.17634 7.588645-18.609453 7.499498-25.730076-0.03343-13.271771-14.085238-27.111855-27.624451-40.717928-41.408818-0.601743-0.612886-1.270346-1.158912-2.050383-1.860945-0.891471 0.82461-1.727225 1.560074-2.496118 2.340111-13.62836 13.76208-27.368153 27.401583-40.751358 41.386531-6.775178 7.076049-17.985423 7.120623-24.905465-0.10029-13.550356-14.163242-27.501874-27.958753-41.286241-41.91027-0.512596-0.512596-1.080908-0.980618-1.805228-1.626934-0.902614 0.802324-1.760655 1.493214-2.529548 2.250964-13.617216 13.750937-27.401583 27.379297-40.773645 41.364244-6.797465 7.098336-18.04114 7.087193-24.883178-0.089147-13.472352-14.085238-27.32358-27.791602-41.0188-41.653972-0.612886-0.612886-1.270346-1.170055-2.094956-1.938949-0.880327 0.780037-1.727225 1.470927-2.496118 2.228677-11.856561 11.990282-23.713123 23.969421-35.536254 35.98199-1.047478 1.069765-1.983522 2.262107-2.774703 3.510166-6.307156 9.995616-22.309056 9.984473-28.582782-0.011143-0.72432-1.158912-1.560074-2.273251-2.507262-3.242725-12.090573-12.28001-24.214575-24.52659-36.338578-36.795457-0.523739-0.523739-1.092052-0.991761-1.816372-1.638078-0.802324 0.679746-1.571217 1.248059-2.23982 1.916662-13.606073 13.76208-27.42387 27.345866-40.740215 41.397675-7.053763 7.432638-18.397728 7.454924-25.440348 0.044574-13.405492-14.129812-27.32358-27.780458-41.029943-41.631686-0.523739-0.523739-1.092052-1.014048-1.816372-1.671508-0.780037 0.65746-1.571217 1.214629-2.250964 1.883232-13.706363 13.851227-27.568734 27.568734-41.041086 41.631686-6.931185 7.220913-18.14143 7.14291-24.894322 0.078004-13.383205-13.984948-27.134142-27.624451-40.740215-41.408818-0.702033-0.702033-1.437497-1.359493-2.351254-2.217534-0.780037 0.646316-1.571217 1.192342-2.228677 1.849802-13.62836 13.750937-27.446157 27.334723-40.740215 41.397675-7.087193 7.477211-18.464589 7.499498-25.718932-0.10029-16.904515-17.717982-34.321625-34.912225-51.571585-52.284762-0.835754-0.835754-1.950092-1.582361-3.064431-1.927806-5.593979-1.760655-9.572168-5.181674-11.58912-10.786797C48.173322 952.303462 47.560436 951.757436 47.1147 951.155693 47.1147 948.90473 47.1147 946.664909 47.1147 944.413946zM942.819972 946.408612c-0.646316-1.203486-1.158912-2.20639-1.693794-3.175865-75.507576-132.205117-151.026294-264.421378-226.455866-396.671069-1.459783-2.551835-3.031001-3.309585-5.872564-3.309585-130.388746 0.06686-260.788635 0.055717-391.188524 0.055717-1.359493 0-2.718986 0-4.000475 0C237.577434 676.415541 161.724413 809.233544 85.715385 942.341276c14.285819 13.851227 28.337628 27.49073 42.46744 41.18595 0.178294-0.178294 0.82461-0.746607 1.437497-1.370636 13.69522-13.862371 27.401583-27.691311 41.074516-41.587112 7.644362-7.766939 17.361394-7.766939 25.028042 0.011143 13.66179 13.895801 27.368153 27.735885 41.063373 41.598256 0.601743 0.612886 1.248059 1.170055 2.07267 1.950092 1.058622-1.036335 2.039239-1.972379 2.997571-2.93071 13.528069-13.672933 27.044995-27.35701 40.584208-41.029943 7.232057-7.298917 17.004805-7.265487 24.203432 0.03343 13.606073 13.773224 27.223289 27.546447 40.829362 41.308528 0.869184 0.869184 1.782942 1.693794 2.975284 2.841563 1.036335-1.181199 1.883232-2.284394 2.852707-3.253868 13.416635-13.617216 26.844414-27.212146 40.261049-40.807075 7.343491-7.454924 17.149669-7.432638 24.504303 0.03343 13.327488 13.516926 26.66612 27.022708 40.015895 40.528491 0.858041 0.869184 1.771798 1.660364 2.774703 2.596409 0.958331-0.902614 1.794085-1.626934 2.562979-2.429258 13.338632-13.494639 26.69955-27.000421 40.015895-40.517347 7.544072-7.666649 17.305677-7.711222 24.771744-0.144864 13.505782 13.69522 27.022708 27.379297 40.517347 41.096803 0.858041 0.869184 1.459783 2.005809 2.217534 3.097861 1.281489-1.170055 1.961236-1.727225 2.551835-2.340111 13.706363-13.840084 27.446157-27.657881 41.096803-41.553682 7.700079-7.8338 17.361394-7.911803 24.994612-0.144864 13.684077 13.873514 27.401583 27.702455 41.107947 41.553682 0.679746 0.702033 1.459783 1.303776 2.217534 1.972379 0.869184-0.813467 1.615791-1.493214 2.306681-2.195247 13.606073-13.784367 27.212146-27.546447 40.807075-41.341958 7.544072-7.666649 17.28339-7.722366 24.771744-0.133721 13.494639 13.69522 27.033852 27.379297 40.506204 41.096803 0.869184 0.869184 1.44864 2.016953 2.217534 3.109004 1.392923-1.270346 2.13953-1.916662 2.841563-2.607552 13.706363-13.851227 27.42387-27.691311 41.096803-41.564825 7.388064-7.499498 17.116239-7.577502 24.470873-0.133721 13.606073 13.76208 27.223289 27.546447 40.840505 41.297384 0.858041 0.858041 1.782942 1.671508 2.774703 2.596409C918.092801 971.447797 930.450815 958.933776 942.819972 946.408612zM699.325871 449.792524c0-138.958009 0-277.748867 0-416.506294-5.82799-0.702033-32.672404-0.445735-35.435964 0.356588 0 1.181199 0 2.418115 0 3.666174 0.011143 24.103141-0.044574 48.206283 0.03343 72.309424 0.03343 12.291153-1.203486 24.437443-4.011619 36.383151-15.723316 66.815735-73.423763 113.584521-138.478843 116.570949-14.965566 0.69089-29.674834-0.612886-44.150091-4.27906-64.074463-16.202482-113.651382-74.382094-113.773959-148.318452-0.044574-24.482016 0.022287-48.95289 0.03343-73.434906 0-1.080908-0.133721-2.161817-0.211724-3.198151C358.360582 32.6622 329.710939 32.840494 326.94738 33.553671c0 138.679424 0 277.358848 0 416.249997C451.162691 449.792524 575.11056 449.792524 699.325871 449.792524zM699.325871 483.111244c-124.226454 0-248.185467 0-372.356204 0 0 9.126432 0 18.029997 0 27.100712 124.215311 0 248.174323 0 372.356204 0C699.325871 501.096667 699.325871 492.170816 699.325871 483.111244z" p-id="14925"></path></svg>